<svg id="Hatch_Logo" data-name="Hatch Logo" xmlns="http://www.w3.org/2000/svg" width="126.059" height="54" viewBox="0 0 126.059 54">
  <g id="Layer_1" data-name="Layer 1">
    <path id="Path_1201" data-name="Path 1201" d="M67.329,23.221A30.492,30.492,0,0,1,72.844,12.7a55.347,55.347,0,0,1,7.982-8.81c1.9-1.64,5.7-5.022,8.418-3.512,2.467,1.364,1.538,4.949.893,7.119-1.3,4.4-3.091,8.708-4.753,12.989-.268.726-.551,1.408-.82,2.1a51.2,51.2,0,0,1,12.648-4.913q2.9-7.358,6.1-14.593c.319-.668,2.032.3,1.705,1.016q-2.9,6.466-5.486,13.062,2.583-.566,5.2-.943c.726-.109,2.09,1.226,1.183,1.357-2.38.348-4.753.791-7.1,1.379Q94.323,30.4,90.71,42.175c-.254.835-2-.058-1.792-.726q3.411-11.081,7.576-21.9a46.783,46.783,0,0,0-13.062,5.805c-3.186,8.04-6.531,16.008-8.207,20.181-.283.668-2-.29-1.705-1.023,1.226-3.091,4.144-10,6.937-16.944a32.974,32.974,0,0,0-5.188,5.261c-.493.624-2.177-.45-1.705-1.023a36.1,36.1,0,0,1,8.28-7.569c2.5-5.994,5.2-12.14,6.77-18.374a12.46,12.46,0,0,0,.421-2.7c0-1.451-.239-1.691-1.6-1.379a13.041,13.041,0,0,0-4.1,2.482,44.418,44.418,0,0,0-7.082,7.257,44.366,44.366,0,0,0-5.4,7.982c-.835,1.662-4.078,8.708-1.64,10.3,1.016.646.443,1.6-.573.958C66.044,29.062,66.654,25.84,67.329,23.221Z" transform="translate(-18.304 0.002)" fill="#5d5d5d"/>
    <path id="Path_1202" data-name="Path 1202" d="M111.8,42.758c-2.438,1.865-5.348.668-4.978-2.562.45-3.853,4.158-10.159,8.236-11.132,2.358-.573,3.258.922,3.2,2.641.4-.805.82-1.6,1.27-2.4s2.424-.3,2.061.414a57.028,57.028,0,0,0-3.44,8.193c-.254.958-.61,2.271.2,2.482,1.734.479,3.977-3.106,4.833-4.5.254-.421,1.045-.073.82.327-1.168,2-4.4,7.982-7.4,5.37a2.968,2.968,0,0,1-.82-2.707A26.385,26.385,0,0,1,111.8,42.758Zm4.2-6.836c.269-.37.508-.726.726-1.074-.552-.044-1.03-1.139-.791-1.538s.922-1.887.479-2.337-1.756-.414-4.593,3.367c-1.118,1.495-4.231,6.379-2.663,7.619,1.807,1.4,5.842-4.622,6.843-6.016Z" transform="translate(-29.289 -7.925)" fill="#5d5d5d"/>
    <path id="Path_1203" data-name="Path 1203" d="M148.654,13.811c-4.187.181-8.476-.537-12.692-.646l-3.128-.044c-.2.377-.414.726-.624,1.118-1.887,3.5-3.628,7.09-5.261,10.725a92.478,92.478,0,0,0-4.289,11.03c-.392,1.3-3.229,11.226-.66,11.879.82.21,1.016,1.364,0,1-2.946-1-2.99-3.853-2.765-6.575A47.57,47.57,0,0,1,122.864,29c1.908-4.768,4.078-9.434,6.451-13.991.334-.617.646-1.241.972-1.887-2.373,0-4.768.087-7.141.2-8.6.414-11.574.972-16.523,1.357-.356.044-1.386-.726-.726-.893,4.608-1.6,7.837-1.538,16.3-1.945,2.961-.138,5.921-.2,8.875-.2a24.69,24.69,0,0,1,4.26-6.531c.406-.45,1.763.341,1.509.929a32.671,32.671,0,0,1-3.12,5.617h1.807c4.115.123,8.519.065,12.547.929C148.487,12.715,149.714,13.767,148.654,13.811Z" transform="translate(-28.987 -1.364)" fill="#5d5d5d"/>
    <path id="Path_1204" data-name="Path 1204" d="M150.518,36.95c-1.974,2.482-7.3,7.728-10.079,7.728-3.628,0-4.7-2.779-3.919-6.357.646-3.019,3.628-8.65,7.641-9.071,2.736-.3,3.628,2.1,2.946,4.354-.167.573-1.364-.116-1.183-.726.726-1.451-.61-3.389-2.409-2.017a11.982,11.982,0,0,0-3.287,4.129,15.167,15.167,0,0,0-1.959,5.921c-.37,4.811,4.847,1.3,6.683,0a35.44,35.44,0,0,0,4.913-4.354C150.278,36.13,150.96,36.384,150.518,36.95Z" transform="translate(-37.381 -8.016)" fill="#5d5d5d"/>
    <path id="Path_1205" data-name="Path 1205" d="M162.373,27.655c.464-1.212,2.366-4.231,2.467-6.248C159.681,26.32,157.4,33.018,154.05,39.15c-.327.581-1.451-.2-1.524-.726-.689-6.923,8.4-28.446,13.737-34.694.4-.464,1.386.726,1.074,1.27a102.82,102.82,0,0,0-7.148,14.136c-2.1,4.956-4.419,10.37-5.53,15.8,3.157-5.457,5.638-11.211,10.362-15.682.283-.268.907.1,1.089.3,1.633,1.734-.1,4.92-.907,6.7-1.052,2.315-1.988,3.694-2.01,5.609,0,1.2.2,1.451,1.292.835A14.869,14.869,0,0,0,167.5,29.6c.268-.377.356.3.1.668-.893,1.313-4.245,5.624-5.805,2.99C160.907,31.777,161.836,29.092,162.373,27.655Z" transform="translate(-41.827 -0.993)" fill="#5d5d5d"/>
    <path id="Path_1206" data-name="Path 1206" d="M72.644,69.44v.726H70.881v.726H72.47v.675H70.881v.726H72.7v.726H70.09V69.44Z" transform="translate(-19.222 -19.049)" fill="#5d5d5d"/>
    <path id="Path_1207" data-name="Path 1207" d="M82.118,70.12a.29.29,0,0,0-.116.247.283.283,0,0,0,.138.247,2.816,2.816,0,0,0,.646.218,1.792,1.792,0,0,1,.784.37,1.045,1.045,0,0,1-.08,1.517,1.4,1.4,0,0,1-.943.3A2.177,2.177,0,0,1,81,72.37l.472-.573a1.7,1.7,0,0,0,1.059.5.617.617,0,0,0,.348-.094A.312.312,0,0,0,83,71.949a.3.3,0,0,0-.131-.254,1.829,1.829,0,0,0-.522-.189,2.271,2.271,0,0,1-.907-.385,1.045,1.045,0,0,1,.073-1.517,1.451,1.451,0,0,1,.936-.276,2.22,2.22,0,0,1,.726.123,1.959,1.959,0,0,1,.617.341l-.4.581a1.567,1.567,0,0,0-.943-.348A.443.443,0,0,0,82.118,70.12Z" transform="translate(-22.215 -19.018)" fill="#5d5d5d"/>
    <path id="Path_1208" data-name="Path 1208" d="M93.321,70.129a.29.29,0,0,0-.116.247.283.283,0,0,0,.138.247,2.815,2.815,0,0,0,.646.218,1.792,1.792,0,0,1,.784.37,1.045,1.045,0,0,1-.08,1.517,1.4,1.4,0,0,1-.943.3A2.133,2.133,0,0,1,92.24,72.4l.464-.573a1.7,1.7,0,0,0,1.059.5.617.617,0,0,0,.348-.094.312.312,0,0,0,.123-.254.3.3,0,0,0-.131-.254,1.828,1.828,0,0,0-.522-.189,2.271,2.271,0,0,1-.907-.385,1.045,1.045,0,0,1,.073-1.517,1.451,1.451,0,0,1,.907-.276,2.22,2.22,0,0,1,.726.123,1.959,1.959,0,0,1,.588.341l-.4.581a1.567,1.567,0,0,0-.951-.348.443.443,0,0,0-.3.073Z" transform="translate(-25.299 -19.026)" fill="#5d5d5d"/>
    <path id="Path_1209" data-name="Path 1209" d="M106.324,69.44v.726h-1.763v.726h1.589v.675h-1.589v.726h1.821v.726H103.77V69.44Z" transform="translate(-28.462 -19.049)" fill="#5d5d5d"/>
    <path id="Path_1210" data-name="Path 1210" d="M117.555,69.44h.791v3.548h-.791l-1.684-2.221v2.221h-.791V69.44h.726l1.734,2.286Z" transform="translate(-31.565 -19.049)" fill="#5d5d5d"/>
    <path id="Path_1211" data-name="Path 1211" d="M128.9,70.116v2.859h-.784V70.116H127.11V69.39h2.823v.726Z" transform="translate(-34.865 -19.035)" fill="#5d5d5d"/>
    <path id="Path_1212" data-name="Path 1212" d="M138.5,69.44h.791v3.548H138.5Z" transform="translate(-37.99 -19.049)" fill="#5d5d5d"/>
    <path id="Path_1213" data-name="Path 1213" d="M149.872,72.988l-.327-.769h-1.488l-.327.769h-.842l1.531-3.548h.762l1.531,3.548ZM148.806,70.5l-.45,1.023h.893Z" transform="translate(-40.291 -19.049)" fill="#5d5d5d"/>
    <path id="Path_1214" data-name="Path 1214" d="M159.46,72.988V69.44h.791v2.845h1.509v.726Z" transform="translate(-43.74 -19.049)" fill="#5d5d5d"/>
    <path id="Path_1215" data-name="Path 1215" d="M170.9,70.129a.29.29,0,0,0-.116.247.283.283,0,0,0,.138.247,2.815,2.815,0,0,0,.646.218,1.792,1.792,0,0,1,.784.37,1.045,1.045,0,0,1-.08,1.517,1.4,1.4,0,0,1-.943.3,2.177,2.177,0,0,1-1.517-.624l.472-.573a1.7,1.7,0,0,0,1.059.5.617.617,0,0,0,.348-.094.312.312,0,0,0,.123-.254.29.29,0,0,0-.138-.254,1.669,1.669,0,0,0-.522-.189,2.279,2.279,0,0,1-.9-.385,1.045,1.045,0,0,1,.073-1.517,1.451,1.451,0,0,1,.907-.276,2.221,2.221,0,0,1,.726.123,1.96,1.96,0,0,1,.617.341l-.4.581a1.567,1.567,0,0,0-.951-.348A.443.443,0,0,0,170.9,70.129Z" transform="translate(-46.579 -19.026)" fill="#5d5d5d"/>
    <path id="Path_1216" data-name="Path 1216" d="M38.306,40.608a32.516,32.516,0,0,1-.457,4.811,20.841,20.841,0,0,1-1.35,4.673,18.824,18.824,0,0,1-2.547,4.2l-.4.464-.2.239-.21.218-.428.45-.45.421-.225.21-.232.2-.472.4-.493.377-.247.181-.254.174-.508.348-.53.319-.261.16-.276.145-.544.3-.552.261-.276.131-.29.116-.566.239-.581.2A20.319,20.319,0,0,1,21.18,60.9a21.356,21.356,0,0,1-9.571-1.255,17.663,17.663,0,0,1-7.779-5.805,16.98,16.98,0,0,1-2.38-4.31A21.139,21.139,0,0,1,.274,44.838,30.993,30.993,0,0,1,0,40.063v-1.2c0-.4.051-.791.087-1.19s.073-.791.131-1.183.145-.791.21-1.176a38.242,38.242,0,0,1,2.685-9.165h0a.965.965,0,0,1,1.8.087h0L8.96,38.786h0l-.726-.2,5.145-4.354h0a.784.784,0,0,1,1.1.1v.036h0l6.807,9.368h0l-.769.065,3.694-8.106h0a.813.813,0,0,1,1.038-.377h0L33.3,37.494h0l-.588.145,3.244-3.773h0a1.284,1.284,0,0,1,1.807-.138,1.306,1.306,0,0,1,.45.958c0,.508,0,1,.044,1.5s0,.987.044,1.451,0,.987,0,1.451S38.32,40.121,38.306,40.608Zm-1.792,0a12.7,12.7,0,0,0-.094-1.379c-.051-.464-.109-.914-.2-1.364s-.189-.907-.3-1.357a12.06,12.06,0,0,0-.428-1.313l2.286.791h0l-4.2,2.649-.087.051a.646.646,0,0,1-.5.087h0L24.859,36.95l.972-.443h0l-4.419,7.75h0a.479.479,0,0,1-.639.174.653.653,0,0,1-.131-.109h0L13.263,35.4l1.139.152h0L8.815,39.309h0a.472.472,0,0,1-.646-.131.247.247,0,0,1-.044-.087h0L3.046,26.914l1.807.094h0c-.37.66-.726,1.335-1.03,2.025-.16.341-.3.726-.45,1.045s-.283.726-.406,1.067a28.751,28.751,0,0,0-1.2,4.4,24.411,24.411,0,0,0-.116,9.064c.058.37.16.726.239,1.1s.2.726.29,1.088a9.567,9.567,0,0,0,.363,1.059c.131.334.261.726.421,1.038A18.141,18.141,0,0,0,5.23,52.733a15.87,15.87,0,0,0,7.01,5.181,18.272,18.272,0,0,0,4.3,1.045A21.277,21.277,0,0,0,21,59a18.679,18.679,0,0,0,4.354-.936l.515-.189.515-.21.254-.109.247-.116.5-.239.486-.261.239-.131.239-.138.472-.29.457-.3.225-.16.218-.167.435-.327.421-.356.189-.16.2-.189.4-.377.377-.4.189-.2.181-.21.363-.414a17.452,17.452,0,0,0,2.286-3.766,21.24,21.24,0,0,0,1.364-4.238A19.724,19.724,0,0,0,36.513,40.608Z" transform="translate(0.008 -7.015)" fill="#5d5d5d"/>
    <path id="Path_1217" data-name="Path 1217" d="M27.493.911a1.669,1.669,0,0,0-.16.2c-.058.073-.109.152-.16.225s-.2.319-.29.486a6.632,6.632,0,0,0-.82,3.265,5.849,5.849,0,0,0,.109,1.125,2.424,2.424,0,0,0,.123.552,3.942,3.942,0,0,0,.174.544,8.708,8.708,0,0,0,1.074,2.017,8.918,8.918,0,0,1,1.168,2.293,7.438,7.438,0,0,1,.341,2.627,7.982,7.982,0,0,1-.624,2.6,8.4,8.4,0,0,1-.6,1.2c-.116.189-.239.377-.377.566l-.2.276-.109.138-.138.16-.225.239a1.023,1.023,0,0,1-1.451-1.4,1.059,1.059,0,0,1,.377-.247.472.472,0,0,0,.073-.065l.094-.08c.065-.058.123-.123.189-.189a4.572,4.572,0,0,0,.348-.4,7.452,7.452,0,0,0,.61-.893,5.842,5.842,0,0,0,.726-2.032,5.6,5.6,0,0,0-.116-2.177,7.648,7.648,0,0,0-.9-2.046,9.034,9.034,0,0,1-1.6-4.8,7.931,7.931,0,0,1,.385-2.54,7.982,7.982,0,0,1,.479-1.19c.094-.2.2-.385.3-.573l.2-.276c.065-.094.116-.181.2-.29a.537.537,0,0,1,.726-.1.544.544,0,0,1,.1.762h0Z" transform="translate(-6.885 -0.003)" fill="#5d5d5d"/>
    <path id="Path_1218" data-name="Path 1218" d="M37.859,11.507c-.058.08-.131.2-.2.3l-.174.334-.152.348c-.036.123-.087.239-.116.363a4.412,4.412,0,0,0-.174,1.451,2.9,2.9,0,0,0,.036.363,2,2,0,0,0,.065.363l.094.356.131.348.065.174.087.16.167.334c.131.21.276.406.414.631l.254.377a3.084,3.084,0,0,1,.232.392,5.08,5.08,0,0,1,.377.864,4.753,4.753,0,0,1,.138.457l.087.472a1.867,1.867,0,0,0,.044.486c.044.167,0,.16,0,.239v.247a5.544,5.544,0,0,1-.428,1.887c-.073.152-.131.3-.2.443a4.826,4.826,0,0,1-.239.421,4.441,4.441,0,0,1-.268.414l-.145.2-.087.1-.044.051-.058.073-.051.044a1.03,1.03,0,1,1-1.509-1.4,1.24,1.24,0,0,1,.145-.131h0l.058-.051.109-.109c.08-.08.152-.167.225-.254s.138-.181.21-.268l.181-.29a3.737,3.737,0,0,0,.493-1.292,3.229,3.229,0,0,0-.044-1.342,3.817,3.817,0,0,0-.21-.675,2.669,2.669,0,0,0-.152-.327l-.174-.327a6.364,6.364,0,0,1-.987-3.425,5.348,5.348,0,0,1,.334-1.756c.051-.138.116-.276.167-.414l.2-.4.232-.377c.087-.131.167-.239.276-.377a.392.392,0,0,1,.617.472Z" transform="translate(-9.843 -2.979)" fill="#5d5d5d"/>
    <path id="Path_1219" data-name="Path 1219" d="M17.5,6.508a3.629,3.629,0,0,0-.319.53,4.187,4.187,0,0,0-.225.6,3.628,3.628,0,0,0-.145,1.241,2.177,2.177,0,0,0,0,.3,2.061,2.061,0,0,0,.058.3l.08.3.116.283.051.145.073.138.145.276c.109.181.232.348.348.53l.218.319a3.709,3.709,0,0,1,.2.334,4.913,4.913,0,0,1,.319.726,3.875,3.875,0,0,1,.116.385l.08.406a3.629,3.629,0,0,1,.044.406c0,.065,0,.138,0,.21v.2a4.55,4.55,0,0,1-.348,1.611,4.985,4.985,0,0,1-.363.726c-.065.116-.145.232-.225.348l-.123.174-.073.087-.036.044-.051.058-.123.145a.974.974,0,0,1-1.451-1.3,1.016,1.016,0,0,1,.261-.2h.051l.094-.094a1.691,1.691,0,0,0,.189-.2,3.44,3.44,0,0,0,.334-.45,3.077,3.077,0,0,0,.4-1.038,2.678,2.678,0,0,0,0-1.125,3.374,3.374,0,0,0-.174-.566,1.531,1.531,0,0,0-.123-.276l-.087-.3a5.341,5.341,0,0,1-.82-2.9,4.47,4.47,0,0,1,.283-1.451,4.013,4.013,0,0,1,.3-.726c.058-.109.123-.218.189-.327A3.839,3.839,0,0,1,17,6.073a.319.319,0,0,1,.457-.051.327.327,0,0,1,.058.45Z" transform="translate(-4.279 -1.631)" fill="#5d5d5d"/>
  </g>
</svg>
